<svg width="60" height="64" viewBox="0 0 60 64" fill="none" xmlns="http://www.w3.org/2000/svg">
<g opacity="0.3" filter="url(#filter0_f_295681_159)">
<path d="M27 11.732C28.8564 10.6602 31.1436 10.6602 33 11.732L40.8564 16.2679C42.7128 17.3397 43.8564 19.3205 43.8564 21.4641V30.5359C43.8564 32.6795 42.7128 34.6602 40.8564 35.732L33 40.2679C31.1436 41.3397 28.8564 41.3397 27 40.2679L19.1436 35.732C17.2871 34.6602 16.1436 32.6795 16.1436 30.5359V21.4641C16.1436 19.3205 17.2871 17.3397 19.1436 16.2679L27 11.732Z" fill="#F7FC0E"/>
</g>
<g opacity="0.4" filter="url(#filter1_f_295681_159)">
<path d="M27 16.732C28.8564 15.6602 31.1436 15.6602 33 16.732L41.7225 21.7679C43.5789 22.8397 44.7225 24.8205 44.7225 26.9641V37.0359C44.7225 39.1795 43.5789 41.1602 41.7225 42.232L33 47.2679C31.1436 48.3397 28.8564 48.3397 27 47.2679L18.2776 42.232C16.4212 41.1602 15.2776 39.1795 15.2776 37.0359V26.9641C15.2776 24.8205 16.4212 22.8397 18.2776 21.7679L27 16.732Z" fill="#F7FC0E"/>
</g>
<path d="M27 3.73204C28.8564 2.66024 31.1435 2.66024 33 3.73204L44.3205 10.2679C46.1769 11.3397 47.3205 13.3205 47.3205 15.4641V28.5359C47.3205 30.6795 46.1769 32.6602 44.3205 33.732L33 40.2679C31.1435 41.3397 28.8564 41.3397 27 40.2679L15.6794 33.732C13.823 32.6602 12.6794 30.6795 12.6794 28.5359V15.4641C12.6794 13.3205 13.823 11.3397 15.6794 10.2679L27 3.73204Z" fill="#F7FC0E"/>
<path d="M24.3752 22.1734L30.1298 12.625V12.6295L30.1312 12.625L35.8849 22.1721L35.888 22.1735L30.1333 25.5751V25.5741L30.1312 25.5753L30.1298 25.574V25.5751L24.3752 22.1734Z" fill="black"/>
<path d="M30.1298 31.371V31.375L24.375 23.2655L30.1298 26.6654V26.6671L30.1312 26.6654L35.8894 23.2655L30.1312 31.375L30.1298 31.371Z" fill="black"/>
<defs>
<filter id="filter0_f_295681_159" x="10.1436" y="4.92819" width="39.7128" height="42.1436" filterUnits="userSpaceOnUse" color-interpolation-filters="sRGB">
<feFlood flood-opacity="0" result="BackgroundImageFix"/>
<feBlend mode="normal" in="SourceGraphic" in2="BackgroundImageFix" result="shape"/>
<feGaussianBlur stdDeviation="3" result="effect1_foregroundBlur_295681_159"/>
</filter>
<filter id="filter1_f_295681_159" x="0.277588" y="0.928192" width="59.4448" height="62.1436" filterUnits="userSpaceOnUse" color-interpolation-filters="sRGB">
<feFlood flood-opacity="0" result="BackgroundImageFix"/>
<feBlend mode="normal" in="SourceGraphic" in2="BackgroundImageFix" result="shape"/>
<feGaussianBlur stdDeviation="7.5" result="effect1_foregroundBlur_295681_159"/>
</filter>
</defs>
</svg>
